<?xml version="1.0" encoding="utf-8"?>
<!-- Generator: Adobe Illustrator 17.0.2, SVG Export Plug-In . SVG Version: 6.00 Build 0)  -->
<!DOCTYPE svg PUBLIC "-//W3C//DTD SVG 1.1//EN" "http://www.w3.org/Graphics/SVG/1.1/DTD/svg11.dtd">
<svg version="1.1" id="Layer_1" xmlns="http://www.w3.org/2000/svg" xmlns:xlink="http://www.w3.org/1999/xlink" x="0px" y="0px"
	 width="288px" height="288px" viewBox="0 0 288 288" enable-background="new 0 0 288 288" xml:space="preserve">
<g>
	<path d="M92.484,95.675l4.348-1.021l43.567-83.615l13.037,5.604l-42.7,81.882l54.706,74.562l-13.288,11.783l-53.612-75.329
		l-5.555,1.305l1.675,84.207l-16.182,3.799l-3.519-169.14l16.181-3.799L92.484,95.675z"/>
</g>
<g>
	<path d="M199.731,233.236c-10.091,11.289-23.52,20.302-37.045,23.477c-41.54,9.751-49.709-41.334-50.487-75.043
		c-0.565-31.72,5.132-88.862,45.224-98.273c18.113-4.252,31.589,4.307,40.844,17.678l-14.141,12.493
		c-6.061-9.535-14.679-16.94-27.479-13.936c-26.808,6.293-28.043,58.565-27.67,78.609c1.148,58.085,17.579,66.204,33.519,62.462
		c6.762-1.587,15.501-6.696,20.944-12.816l-1.009-50.981l-30.189,7.087l-0.263-15.228l46.37-10.886L199.731,233.236z"/>
</g>
</svg>
